name C:\Users\u0101727\Documents\MyRepositories\upper-imu-dc\Results\main_tracking\Case_40\FLX01_orientations_groundFrame.mot
datacolumns 13
datarows 29
range 5.01000000 5.29000000
endheader 
time	radius_imu_[0][0]	radius_imu_[0][1]	radius_imu_[0][2]	radius_imu_[1][0]	radius_imu_[1][1]	radius_imu_[1][2]	radius_imu_[2][0]	radius_imu_[2][1]	radius_imu_[2][2]	radius_imu_x	radius_imu_y	radius_imu_z	
          5.01000000	          0.23241326	         -0.89975618	          0.36935470	         -0.30479817	          0.29324710	          0.90614801	         -0.92362447	         -0.32317944	         -0.20608952	         -1.79442696	          0.37831452	          1.31801479	
          5.02000000	          0.24349512	         -0.89071133	          0.38385342	         -0.30139265	          0.30668495	          0.90283266	         -0.92188535	         -0.33552595	         -0.19377756	         -1.78222155	          0.39396579	          1.30394472	
          5.03000000	          0.24825429	         -0.88387443	          0.39640358	         -0.29854478	          0.31948431	          0.89933353	         -0.92154263	         -0.34160763	         -0.18456275	         -1.77320766	          0.40759618	          1.29698055	
          5.04000000	          0.23104006	         -0.88506639	          0.40407670	         -0.29581123	          0.33175230	          0.89578799	         -0.92688522	         -0.32649334	         -0.18516451	         -1.77463131	          0.41596923	          1.31545190	
          5.05000000	          0.25448965	         -0.87153968	          0.41911049	         -0.29266777	          0.34364877	          0.89232903	         -0.92172696	         -0.34974864	         -0.16761651	         -1.75647425	          0.43246540	          1.28669497	
          5.06000000	          0.25686506	         -0.86582067	          0.42938900	         -0.28867447	          0.35527727	          0.88906980	         -0.92232716	         -0.35232461	         -0.15868200	         -1.74741748	          0.44381612	          1.28239520	
          5.07000000	          0.26048862	         -0.85981894	          0.43915495	         -0.28350551	          0.36668589	          0.88609598	         -0.92291403	         -0.35532076	         -0.14824591	         -1.73656341	          0.45465785	          1.27662842	
          5.08000000	          0.26485403	         -0.85377657	          0.44823868	         -0.27697359	          0.37789524	          0.88344825	         -0.92365468	         -0.35813511	         -0.13638648	         -1.72396683	          0.46479401	          1.26999480	
          5.09000000	          0.26982900	         -0.84775582	          0.45662061	         -0.26910560	          0.38892301	          0.88109084	         -0.92454015	         -0.36062302	         -0.12319314	         -1.70971463	          0.47419297	          1.26264874	
          5.10000000	          0.27538261	         -0.84173451	          0.46437855	         -0.26014905	          0.39978184	          0.87891806	         -0.92546577	         -0.36284639	         -0.10888347	         -1.69405188	          0.48293278	          1.25461122	
          5.11000000	          0.28140116	         -0.83568507	          0.47163953	         -0.25050357	          0.41048289	          0.87678490	         -0.92631601	         -0.36487568	         -0.09383173	         -1.67740852	          0.49114917	          1.24599090	
          5.12000000	          0.28767649	         -0.82959850	          0.47854839	         -0.24061085	          0.42104058	          0.87454631	         -0.92701060	         -0.36673035	         -0.07848693	         -1.66030241	          0.49900076	          1.23700554	
          5.13000000	          0.29397880	         -0.82347531	          0.48524723	         -0.23085664	          0.43147641	          0.87208562	         -0.92751371	         -0.36839723	         -0.06325982	         -1.64320804	          0.50664589	          1.22790112	
          5.14000000	          0.30012311	         -0.81731026	          0.49186386	         -0.22152490	          0.44181964	          0.86932280	         -0.92782156	         -0.36986395	         -0.04845429	         -1.62647668	          0.51422918	          1.21887418	
          5.15000000	          0.30598114	         -0.81108736	          0.49851062	         -0.21281174	          0.45210471	          0.86620580	         -0.92794758	         -0.37113155	         -0.03427339	         -1.61034296	          0.52187984	          1.21005620	
          5.16000000	          0.31145688	         -0.80478204	          0.50529247	         -0.20487445	          0.46236629	          0.86269570	         -0.92791221	         -0.37221403	         -0.02087212	         -1.59498567	          0.52972085	          1.20154010	
          5.17000000	          0.31646223	         -0.79836293	          0.51231659	         -0.19787881	          0.47263407	          0.85875550	         -0.92773684	         -0.37314028	         -0.00840827	         -1.58058725	          0.53788011	          1.19340681	
          5.18000000	          0.32090842	         -0.79179225	          0.51969493	         -0.19201905	          0.48292870	          0.85434686	         -0.92744082	         -0.37395843	          0.00293669	         -1.56735898	          0.54649383	          1.18573475	
          5.19000000	          0.32470971	         -0.78502852	          0.52753561	         -0.18750317	          0.49325918	          0.84943389	         -0.92704162	         -0.37473403	          0.01297071	         -1.55552769	          0.55569707	          1.17859723	
          5.20000000	          0.32779722	         -0.77803248	          0.53592391	         -0.18450692	          0.50362221	          0.84399162	         -0.92655608	         -0.37553978	          0.02153359	         -1.54528788	          0.56560171	          1.17205053	
          5.21000000	          0.33014409	         -0.77077331	          0.54489759	         -0.18311083	          0.51400329	          0.83801613	         -0.92599962	         -0.37644272	          0.02855821	         -1.53673116	          0.57626698	          1.16610989	
          5.22000000	          0.33179427	         -0.76323305	          0.55442571	         -0.18324690	          0.52437869	          0.83153326	         -0.92538270	         -0.37749476	          0.03412576	         -1.52977979	          0.58767275	          1.16071988	
          5.23000000	          0.33288105	         -0.75540884	          0.56440029	         -0.18467954	          0.53471725	          0.82460350	         -0.92470734	         -0.37872807	          0.03848868	         -1.52415480	          0.59970659	          1.15573376	
          5.24000000	          0.33362400	         -0.74731406	          0.57464487	         -0.18703005	          0.54498126	          0.81732196	         -0.92396688	         -0.38015408	          0.04204864	         -1.51939480	          0.61217015	          1.15091453	
          5.25000000	          0.33429837	         -0.73898013	          0.58493844	         -0.18983820	          0.55512678	          0.80981215	         -0.92315008	         -0.38176254	          0.04529132	         -1.51492635	          0.62480415	          1.14596660	
          5.26000000	          0.33517876	         -0.73045972	          0.59504941	         -0.19264501	          0.56510402	          0.80221278	         -0.92224893	         -0.38351799	          0.04869144	         -1.51017428	          0.63732712	          1.14059888	
          5.27000000	          0.33647171	         -0.72182961	          0.60477170	         -0.19507440	          0.57485907	          0.79465907	         -0.92126694	         -0.38535577	          0.05261334	         -1.50468413	          0.64947917	          1.13460395	
          5.28000000	          0.33826015	         -0.71318971	          0.61395480	         -0.19689014	          0.58433808	          0.78726316	         -0.92022516	         -0.38718141	          0.05723827	         -1.49821865	          0.66106115	          1.12792584	
          5.29000000	          0.34047540	         -0.70465766	          0.62252235	         -0.19801382	          0.59349443	          0.78009928	         -0.91916649	         -0.38887264	          0.06253830	         -1.49080030	          0.67196162	          1.12069628	
